<svg width="98" height="34" viewBox="0 0 98 34" fill="none" xmlns="http://www.w3.org/2000/svg">
<path d="M22.6616 29.4463C26.4255 29.4463 29.4768 26.395 29.4768 22.6311C29.4768 18.8672 26.4255 15.8159 22.6616 15.8159C18.8977 15.8159 15.8464 18.8672 15.8464 22.6311C15.8464 26.395 18.8977 29.4463 22.6616 29.4463Z" fill="#97CF26"/>
<path d="M9.85091 25.8036C11.6029 25.8036 13.0232 24.3833 13.0232 22.6313C13.0232 20.8793 11.6029 19.459 9.85091 19.459C8.09889 19.459 6.67859 20.8793 6.67859 22.6313C6.67859 24.3833 8.09889 25.8036 9.85091 25.8036Z" fill="#A169F7"/>
<path d="M22.6616 14.2073C25.0843 14.2073 27.0482 12.2433 27.0482 9.82069C27.0482 7.39803 25.0843 5.43408 22.6616 5.43408C20.239 5.43408 18.275 7.39803 18.275 9.82069C18.275 12.2433 20.239 14.2073 22.6616 14.2073Z" fill="#FF6163"/>
<path d="M9.85089 15.4215C12.9442 15.4215 15.4518 12.9139 15.4518 9.82062C15.4518 6.72733 12.9442 4.21973 9.85089 4.21973C6.75761 4.21973 4.25 6.72733 4.25 9.82062C4.25 12.9139 6.75761 15.4215 9.85089 15.4215Z" fill="#00AAFF"/>
<path d="M47.1951 25.7666H50.7329L44.1809 7.92627H41.6148L35.0616 25.7672H38.5998L39.8511 22.3617H45.9438L47.1951 25.7672L40.8365 19.6769L42.8977 14.0669L44.9578 19.6769H40.8365L47.1951 25.7666ZM59.5031 13.5867L56.2473 22.4491L52.993 13.5867H49.6689L54.1441 25.7666H58.351L62.8257 13.5867H59.5025M64.2169 13.5867H67.5411V25.7666H64.2169V13.5867Z" fill="black"/>
<path d="M65.8902 12.2037C67.0722 12.2037 68.0304 11.2455 68.0304 10.0635C68.0304 8.88153 67.0722 7.92334 65.8902 7.92334C64.7082 7.92334 63.75 8.88153 63.75 10.0635C63.75 11.2455 64.7082 12.2037 65.8902 12.2037Z" fill="black"/>
<path d="M79.2777 16.2707V13.5865H75.2958V10.2266H71.9738V13.5865H69.3448V16.2707H71.9738V21.5109C71.9738 24.2139 73.3253 26.018 76.7763 26.018C78.109 26.018 79.2777 25.5287 79.2777 25.5287L78.874 22.8988C78.874 22.8988 78.2198 23.0943 77.4153 23.0943C76.4293 23.0943 75.2958 22.6693 75.2958 21.3063V16.2704L79.2777 16.2707ZM86.9004 22.9823C85.0471 22.9823 83.5453 21.513 83.5453 19.7007C83.5453 17.8899 85.0471 16.4203 86.8998 16.4203C88.7537 16.4203 90.2549 17.8902 90.2549 19.701C90.2549 21.5133 88.7537 22.9823 86.9004 22.9823ZM86.9004 13.2756C83.2976 13.2756 80.3757 16.1338 80.3757 19.6567C80.3757 23.1812 83.2976 26.0378 86.9001 26.0378C90.501 26.0378 93.4229 23.1812 93.4229 19.6567C93.4229 16.1338 90.501 13.2756 86.8998 13.2756" fill="black"/>
</svg>
