<svg width="34" height="34" viewBox="0 0 34 34" fill="none" xmlns="http://www.w3.org/2000/svg">
<path d="M17 0C7.62344 0 0 7.62308 0 17C0 26.3762 7.62344 34 17 34C26.3762 34 34 26.3762 34 17C34 7.62308 26.3762 0 17 0Z" fill="url(#paint0_linear_4618_16743)"/>
<path d="M14.6603 16.6735C14.6603 15.169 15.8799 13.9485 17.3844 13.9485C18.8889 13.9485 20.1093 15.169 20.1093 16.6735C20.1093 18.178 18.8889 19.3984 17.3844 19.3984C15.8799 19.3984 14.6603 18.178 14.6603 16.6735ZM13.1874 16.6735C13.1874 18.9911 15.0664 20.8703 17.3844 20.8703C19.7021 20.8703 21.5813 18.9911 21.5813 16.6735C21.5813 14.3551 19.7021 12.4766 17.3844 12.4766C15.0664 12.4766 13.1874 14.3551 13.1874 16.6735ZM20.7667 12.3101C20.7667 12.5042 20.8241 12.6933 20.9317 12.8548C21.0394 13.0163 21.1924 13.1424 21.3716 13.2168C21.5508 13.2905 21.7484 13.3103 21.9383 13.2728C22.1288 13.2345 22.3038 13.1417 22.4405 13.0043C22.5779 12.8669 22.6714 12.6926 22.7096 12.5021C22.7472 12.3122 22.7281 12.1146 22.6537 11.9354C22.5793 11.7562 22.4539 11.6032 22.2924 11.4948C22.1316 11.3872 21.9418 11.3298 21.7477 11.3298C21.4871 11.3298 21.2377 11.4332 21.0543 11.6167C20.8701 11.8008 20.7667 12.0502 20.7667 12.3101ZM14.0823 23.3261C13.2854 23.29 12.8523 23.1575 12.5645 23.0449C12.1828 22.8969 11.9106 22.7198 11.6243 22.4336C11.3381 22.1482 11.1608 21.8762 11.0129 21.4944C10.9007 21.2068 10.768 20.7733 10.7318 19.9764C10.6921 19.1151 10.6843 18.8558 10.6843 16.6735C10.6843 14.4911 10.6928 14.2325 10.7318 13.3705C10.7681 12.5736 10.9018 12.1408 11.0129 11.8525C11.1615 11.4708 11.3384 11.1988 11.6243 10.9126C11.9102 10.6264 12.1822 10.4493 12.5645 10.3013C12.8521 10.1887 13.2854 10.0562 14.0823 10.0201C14.9438 9.98041 15.2027 9.97263 17.3844 9.97263C19.5661 9.97263 19.8253 9.98112 20.6873 10.0201C21.4842 10.0562 21.9163 10.1901 22.2053 10.3013C22.5871 10.4493 22.8591 10.6264 23.1453 10.9126C23.4314 11.198 23.6078 11.4708 23.7566 11.8525C23.8692 12.1401 24.0016 12.5736 24.0378 13.3705C24.0774 14.2325 24.0852 14.4911 24.0852 16.6735C24.0852 18.8558 24.0774 19.1144 24.0378 19.9764C24.0016 20.7733 23.8685 21.2068 23.7566 21.4944C23.6078 21.8762 23.4314 22.1482 23.1453 22.4336C22.8598 22.7191 22.5871 22.8969 22.2053 23.0449C21.9177 23.1575 21.4842 23.29 20.6873 23.3261C19.826 23.3658 19.5668 23.3736 17.3844 23.3736C15.2017 23.3736 14.9435 23.3658 14.0823 23.3261ZM14.0146 8.54959C13.1445 8.58926 12.5499 8.72737 12.0307 8.92924C11.493 9.13749 11.0377 9.41801 10.5828 9.87205C10.1279 10.3261 9.84872 10.7822 9.64004 11.3199C9.43803 11.8391 9.30005 12.4334 9.26045 13.3039C9.22015 14.1752 9.21094 14.4535 9.21094 16.6735C9.21094 18.8934 9.22015 19.1717 9.26045 20.043C9.30005 20.9135 9.43803 21.5078 9.64004 22.027C9.84872 22.5647 10.128 23.0208 10.5828 23.4749C11.0377 23.9289 11.493 24.2087 12.0307 24.4177C12.5509 24.6195 13.1445 24.7577 14.0146 24.7973C14.8865 24.837 15.1647 24.8469 17.3844 24.8469C19.6043 24.8469 19.8827 24.8377 20.7539 24.7973C21.6245 24.7577 22.2188 24.6195 22.738 24.4177C23.2756 24.2087 23.7311 23.9289 24.1858 23.4749C24.6406 23.0208 24.9196 22.5647 25.1286 22.027C25.3305 21.5078 25.4693 20.9135 25.5083 20.043C25.5479 19.171 25.5571 18.8934 25.5571 16.6735C25.5571 14.4535 25.5479 14.1752 25.5083 13.3039C25.4686 12.4334 25.3305 11.8391 25.1286 11.3199C24.9196 10.7822 24.6398 10.3268 24.1858 9.87205C23.7318 9.4173 23.2756 9.13749 22.7387 8.92924C22.2188 8.72737 21.6245 8.58855 20.7546 8.54959C19.8834 8.50992 19.6043 8.5 17.3851 8.5C15.1653 8.5 14.8865 8.50921 14.0146 8.54959Z" fill="white"/>
<defs>
<linearGradient id="paint0_linear_4618_16743" x1="17" y1="0" x2="17" y2="34" gradientUnits="userSpaceOnUse">
<stop stop-color="#635BCB"/>
<stop offset="0.3125" stop-color="#C331A3"/>
<stop offset="0.619792" stop-color="#E7633A"/>
<stop offset="1" stop-color="#FCB153"/>
</linearGradient>
</defs>
</svg>
