<svg width="34" height="34" viewBox="0 0 34 34" fill="none" xmlns="http://www.w3.org/2000/svg">
<g clip-path="url(#clip0_1202_9)">
<path d="M16.5212 34.0142C25.6456 34.0142 33.0423 26.3998 33.0423 17.0071C33.0423 7.61433 25.6456 0 16.5212 0C7.39678 0 0 7.61433 0 17.0071C0 26.3998 7.39678 34.0142 16.5212 34.0142Z" fill="url(#paint0_linear_1202_9)"/>
<path fill-rule="evenodd" clip-rule="evenodd" d="M7.46964 16.823C12.2843 14.6706 15.4895 13.2404 17.099 12.5465C21.6798 10.5781 22.6427 10.2383 23.2617 10.2241C23.3993 10.2241 23.7019 10.2524 23.9083 10.4224C24.0733 10.564 24.1146 10.7481 24.1421 10.8897C24.1696 11.0313 24.1971 11.3287 24.1696 11.5552C23.922 14.2458 22.849 20.7739 22.2988 23.776C22.0649 25.0504 21.611 25.4753 21.1708 25.5177C20.2079 25.6027 19.4788 24.8664 18.5571 24.2433C17.099 23.2662 16.2873 22.6573 14.8705 21.6943C13.2335 20.5898 14.2927 19.9809 15.2281 18.9896C15.4757 18.7347 19.6989 14.7697 19.7814 14.4157C19.7952 14.3732 19.7952 14.2033 19.6989 14.1183C19.6026 14.0334 19.465 14.0617 19.355 14.09C19.2037 14.1183 16.8926 15.7043 12.3944 18.8339C11.7341 19.3012 11.1425 19.5277 10.606 19.5136C10.0145 19.4994 8.88653 19.1737 8.03364 18.8905C7.00193 18.5507 6.17656 18.3666 6.24534 17.7718C6.28661 17.4603 6.69929 17.1487 7.46964 16.823Z" fill="white"/>
</g>
<defs>
<linearGradient id="paint0_linear_1202_9" x1="16.5074" y1="0" x2="16.5074" y2="33.7451" gradientUnits="userSpaceOnUse">
<stop stop-color="#2AABEE"/>
<stop offset="1" stop-color="#229ED9"/>
</linearGradient>
<clipPath id="clip0_1202_9">
<rect width="33.0286" height="34" fill="white"/>
</clipPath>
</defs>
</svg>
