<svg width="34" height="34" viewBox="0 0 34 34" fill="none" xmlns="http://www.w3.org/2000/svg">
<circle cx="17" cy="17" r="16.5" fill="white" stroke="black"/>
<path d="M13.816 17.404C12.0714 17.404 10.6621 18.8133 10.6878 20.5407C10.705 21.6493 11.3152 22.6118 12.2132 23.1489C11.9082 22.6805 11.7277 22.1262 11.7191 21.529C11.6933 19.8016 13.1027 18.3922 14.8472 18.3922C15.191 18.3922 15.5218 18.4481 15.8312 18.5469V15.0879C15.5089 15.0407 15.1781 15.0149 14.8472 15.0149C14.83 15.0149 14.8171 15.0149 14.8 15.0149V17.5586C14.4906 17.4598 14.1597 17.404 13.816 17.404Z" fill="#F00044"/>
<path d="M21.3648 7.03125H21.3391H20.4453C20.7031 8.32461 21.4293 9.45039 22.4434 10.2152C21.7773 9.33437 21.3734 8.23437 21.3648 7.03125Z" fill="#F00044"/>
<path d="M26.6219 12.295C26.2824 12.295 25.9559 12.2606 25.6336 12.2004V14.6797C24.4648 14.6797 23.3305 14.452 22.2648 13.9965C21.5773 13.7043 20.9371 13.3305 20.3484 12.8793L20.3656 20.5235C20.357 22.2422 19.6781 23.8536 18.4492 25.0696C17.448 26.0579 16.1805 26.6895 14.8055 26.8915C14.4832 26.9387 14.1523 26.9645 13.8215 26.9645C12.352 26.9645 10.9512 26.4876 9.8125 25.6067C9.94141 25.7614 10.0789 25.9118 10.2293 26.0579C11.4668 27.2782 13.1082 27.9528 14.857 27.9528C15.1879 27.9528 15.5187 27.927 15.841 27.8797C17.216 27.6778 18.4836 27.0461 19.4848 26.0579C20.7137 24.8418 21.3926 23.2305 21.4012 21.5118L21.3367 13.8676C21.9211 14.3188 22.5613 14.6969 23.2531 14.9848C24.323 15.436 25.4574 15.668 26.6219 15.668" fill="#F00044"/>
<path d="M10.2203 16.9184C11.4449 15.7024 13.0735 15.0278 14.8094 15.0149V14.0997C14.4871 14.0524 14.1563 14.0266 13.8254 14.0266C12.0723 14.0266 10.4266 14.7012 9.18908 15.9301C7.97307 17.1376 7.27697 18.7876 7.28127 20.502C7.28127 22.2293 7.96447 23.8493 9.19768 25.0739C9.39533 25.2672 9.59729 25.4477 9.81213 25.611C8.84104 24.4551 8.31252 23.0114 8.30822 21.4903C8.31252 19.7758 9.00432 18.1258 10.2203 16.9184Z" fill="#08FFF9"/>
<path d="M25.6414 12.2004V11.2808H25.6328C24.4383 11.2808 23.3383 10.8855 22.4531 10.2152C23.2223 11.2293 24.348 11.9511 25.6414 12.2004Z" fill="#08FFF9"/>
<path d="M14.6844 24.5711C15.0926 24.5926 15.4836 24.5367 15.8445 24.4207C17.0906 24.0125 17.9887 22.8523 17.9887 21.4859L17.993 16.3727V7.03125H20.4508C20.3863 6.70898 20.3519 6.38242 20.3477 6.04297H16.9617V15.3801L16.9574 20.4934C16.9574 21.8598 16.0594 23.0199 14.8133 23.4281C14.4523 23.5484 14.0613 23.6043 13.6531 23.5785C13.1332 23.5484 12.6477 23.3937 12.2266 23.1445C12.7551 23.9609 13.6574 24.5152 14.6844 24.5711Z" fill="#08FFF9"/>
<path d="M14.8094 26.8914C16.1844 26.6895 17.452 26.0578 18.4531 25.0695C19.682 23.8535 20.361 22.2422 20.3695 20.5234L20.3524 12.8793C20.9367 13.3305 21.577 13.7086 22.2688 13.9965C23.3387 14.4477 24.4731 14.6797 25.6375 14.6797V12.2004C24.3442 11.9512 23.2184 11.2293 22.4492 10.2152C21.4352 9.45039 20.7047 8.32461 20.4512 7.03125H17.9891V16.3684L17.9848 21.4816C17.9848 22.848 17.0867 24.0082 15.8406 24.4164C15.4797 24.5367 15.0887 24.5926 14.6805 24.5668C13.6492 24.5109 12.7512 23.9566 12.2227 23.1445C11.3246 22.6117 10.7145 21.6449 10.6973 20.5363C10.6715 18.809 12.0809 17.3996 13.8254 17.3996C14.1692 17.3996 14.5 17.4555 14.8094 17.5543V15.0105C13.0735 15.0234 11.4449 15.698 10.2203 16.9141C9.00432 18.1215 8.30822 19.7715 8.31252 21.4816C8.31252 23.0027 8.84104 24.4465 9.81643 25.6023C10.9594 26.4832 12.3559 26.9602 13.8254 26.9602C14.1563 26.9645 14.4871 26.9387 14.8094 26.8914Z" fill="black"/>
</svg>
