<svg width="34" height="34" viewBox="0 0 34 34" fill="none" xmlns="http://www.w3.org/2000/svg">
<path d="M0 34L2.3911 25.2698C0.91391 22.7087 0.137987 19.8035 0.141556 16.847C0.14545 7.55744 7.70518 0 16.995 0C21.503 0.00229055 25.7343 1.75662 28.9166 4.94117C32.0988 8.12572 33.8497 12.3587 33.8481 16.8605C33.844 26.1494 26.2831 33.7082 16.9947 33.7082H16.9874C14.167 33.707 11.3957 32.9995 8.93406 31.6572L0 34Z" fill="white"/>
<path d="M17 2.84574C9.27324 2.84574 2.98958 9.12712 2.98683 16.8479C2.98303 19.4843 3.72545 22.068 5.12827 24.3002L5.46154 24.83L4.04621 29.997L9.34792 28.6069L9.85985 28.9101C12.01 30.1862 14.4753 30.861 16.9894 30.8624H16.9947C24.7154 30.8624 30.9991 24.5803 31.0021 16.8591C31.0079 15.0188 30.6486 13.1956 29.945 11.495C29.2415 9.79453 28.2075 8.25046 26.9031 6.95224C25.606 5.64692 24.0628 4.61186 22.3629 3.90697C20.663 3.20209 18.8402 2.84139 17 2.84574Z" fill="url(#paint0_linear_1202_22)"/>
<path fill-rule="evenodd" clip-rule="evenodd" d="M12.7826 9.80373C12.467 9.1026 12.1348 9.0884 11.835 9.07626L11.0278 9.06641C10.747 9.06641 10.2907 9.17177 9.905 9.59323C9.51927 10.0147 8.43103 11.0333 8.43103 13.1051C8.43103 15.1769 9.94004 17.1788 10.1503 17.4601C10.3606 17.7414 13.0634 22.1285 17.3438 23.8164C20.9008 25.2191 21.6246 24.9401 22.397 24.8701C23.1693 24.8 24.8884 23.8514 25.2391 22.8681C25.5898 21.8848 25.59 21.0423 25.4849 20.8662C25.3797 20.69 25.0989 20.5854 24.6774 20.3746C24.256 20.1639 22.186 19.1453 21.8 19.0046C21.4141 18.864 21.1335 18.7941 20.8524 19.2156C20.5714 19.6371 19.7654 20.5851 19.5196 20.8662C19.2738 21.1472 19.0285 21.1825 18.607 20.972C18.1856 20.7615 16.8296 20.3167 15.2207 18.8821C13.9689 17.7659 13.1239 16.3875 12.8779 15.9662C12.6319 15.545 12.8518 15.3169 13.063 15.107C13.2519 14.9183 13.484 14.6153 13.6949 14.3695C13.9059 14.1237 13.9753 13.948 14.1155 13.6674C14.2557 13.3868 14.1858 13.1404 14.0804 12.9299C13.9751 12.7194 13.1569 10.6366 12.7826 9.80373Z" fill="white"/>
<defs>
<linearGradient id="paint0_linear_1202_22" x1="16.7093" y1="4.52701" x2="16.8513" y2="28.469" gradientUnits="userSpaceOnUse">
<stop stop-color="#57D163"/>
<stop offset="1" stop-color="#23B33A"/>
</linearGradient>
</defs>
</svg>
