<svg width="34" height="34" viewBox="0 0 34 34" fill="none" xmlns="http://www.w3.org/2000/svg">
<path d="M17 0C7.62344 0 0 7.62308 0 17C0 26.3762 7.62344 34 17 34C26.3762 34 34 26.3762 34 17C34 7.62308 26.3762 0 17 0Z" fill="#BB2025"/>
<g clip-path="url(#clip0_4618_16738)">
<path d="M11.3281 17.6879C11.3281 15.8191 11.3281 13.9597 11.3281 12.0908C11.3281 11.3509 11.6537 11.1517 12.3543 11.4932C16.3602 13.4474 20.376 15.4017 24.3721 17.3749C24.5595 17.4698 24.7766 17.7069 24.7766 17.8872C24.7766 18.0579 24.5595 18.3141 24.3721 18.3994C20.8595 20.0311 17.337 21.6439 13.8146 23.2566C13.3015 23.4938 12.7884 23.7404 12.2655 23.9681C11.6439 24.2432 11.3281 24.044 11.3281 23.3799C11.3281 21.4826 11.3281 19.5853 11.3281 17.6879Z" fill="white"/>
</g>
<defs>
<clipPath id="clip0_4618_16738">
<rect width="13.4583" height="12.75" fill="white" transform="translate(11.3281 11.3333)"/>
</clipPath>
</defs>
</svg>
