<svg width="34" height="34" viewBox="0 0 34 34" fill="none" xmlns="http://www.w3.org/2000/svg">
<path d="M17 0C7.62344 0 0 7.62308 0 17C0 26.3762 7.62344 34 17 34C26.3762 34 34 26.3762 34 17C34 7.62308 26.3762 0 17 0Z" fill="#45668E"/>
<g clip-path="url(#clip0_4618_16759)">
<path d="M26.8063 21.5617C26.7823 21.51 26.7599 21.467 26.7391 21.4326C26.395 20.8129 25.7374 20.0522 24.7668 19.1503L24.7463 19.1297L24.736 19.1195L24.7256 19.1092H24.7152C24.2747 18.6892 23.9957 18.4068 23.8789 18.2623C23.6651 17.9869 23.6172 17.7081 23.7341 17.4257C23.8166 17.2123 24.1266 16.7616 24.6634 16.0731C24.9458 15.7082 25.1694 15.4157 25.3346 15.1954C26.5257 13.6119 27.042 12.6001 26.8836 12.1594L26.8221 12.0565C26.7808 11.9945 26.6741 11.9378 26.5021 11.886C26.3298 11.8344 26.1096 11.8259 25.8411 11.8603L22.8671 11.8808C22.819 11.8638 22.7502 11.8653 22.6605 11.886C22.571 11.9067 22.5262 11.9171 22.5262 11.9171L22.4745 11.943L22.4334 11.974C22.399 11.9946 22.3611 12.0307 22.3198 12.0824C22.2786 12.1338 22.2442 12.1942 22.2167 12.2631C21.893 13.0961 21.5248 13.8705 21.1117 14.5865C20.8569 15.0133 20.623 15.3833 20.4094 15.6966C20.196 16.0097 20.017 16.2404 19.8725 16.3883C19.7279 16.5364 19.5973 16.655 19.48 16.7446C19.363 16.8342 19.2736 16.8721 19.2117 16.8582C19.1497 16.8443 19.0913 16.8306 19.036 16.8169C18.9397 16.7549 18.8622 16.6706 18.8038 16.5639C18.7451 16.4572 18.7056 16.3229 18.685 16.1611C18.6644 15.9992 18.6523 15.8599 18.6488 15.7429C18.6456 15.6259 18.647 15.4605 18.654 15.2471C18.6612 15.0336 18.6644 14.8892 18.6644 14.8134C18.6644 14.5518 18.6695 14.2678 18.6797 13.9615C18.6902 13.6551 18.6986 13.4124 18.7056 13.2336C18.7127 13.0546 18.7159 12.8652 18.7159 12.6656C18.7159 12.4659 18.7038 12.3093 18.6797 12.1957C18.656 12.0822 18.6196 11.972 18.5716 11.8652C18.5233 11.7585 18.4526 11.676 18.3599 11.6174C18.267 11.5589 18.1515 11.5124 18.014 11.4779C17.6491 11.3954 17.1844 11.3507 16.6198 11.3438C15.3394 11.33 14.5167 11.4127 14.1518 11.5917C14.0072 11.6673 13.8764 11.7707 13.7594 11.9014C13.6355 12.0529 13.6182 12.1356 13.7077 12.1492C14.1208 12.211 14.4133 12.3591 14.5854 12.5931L14.6474 12.7171C14.6957 12.8066 14.7438 12.965 14.7921 13.1922C14.8402 13.4193 14.8713 13.6706 14.8849 13.9458C14.9193 14.4485 14.9193 14.8787 14.8849 15.2367C14.8505 15.5947 14.8179 15.8735 14.7868 16.0731C14.7558 16.2728 14.7093 16.4346 14.6474 16.5584C14.5854 16.6823 14.5441 16.7581 14.5234 16.7856C14.5028 16.8131 14.4856 16.8304 14.4719 16.8372C14.3824 16.8715 14.2893 16.8889 14.193 16.8889C14.0966 16.8889 13.9796 16.8407 13.8419 16.7443C13.7043 16.6478 13.5615 16.5154 13.4135 16.3467C13.2654 16.178 13.0985 15.9422 12.9125 15.6393C12.7267 15.3364 12.5339 14.9785 12.3343 14.5654L12.1691 14.2659C12.0658 14.0732 11.9248 13.7926 11.7458 13.4244C11.5667 13.056 11.4084 12.6996 11.2708 12.3554C11.2157 12.2109 11.1331 12.1008 11.023 12.0251L10.9713 11.994C10.9369 11.9665 10.8818 11.9373 10.8061 11.9062C10.7303 11.8751 10.6513 11.8529 10.5686 11.8392L7.73914 11.8597C7.45001 11.8597 7.25383 11.9252 7.15053 12.056L7.10919 12.1179C7.08854 12.1524 7.07812 12.2074 7.07812 12.2832C7.07812 12.3589 7.09878 12.4519 7.14012 12.5619C7.55316 13.5327 8.00234 14.4689 8.48765 15.3708C8.97296 16.2726 9.39469 16.999 9.75258 17.5495C10.1105 18.1003 10.4754 18.6201 10.8472 19.1088C11.219 19.5976 11.4651 19.9108 11.5855 20.0485C11.706 20.1863 11.8007 20.2894 11.8695 20.3582L12.1277 20.606C12.2929 20.7713 12.5356 20.9692 12.8557 21.1998C13.1759 21.4305 13.5304 21.6576 13.9193 21.8815C14.3084 22.1051 14.7609 22.2875 15.2773 22.4286C15.7936 22.5699 16.2962 22.6265 16.785 22.5992H17.9725C18.2134 22.5784 18.3959 22.5027 18.5199 22.372L18.561 22.3202C18.5886 22.2791 18.6145 22.2153 18.6383 22.1294C18.6625 22.0433 18.6745 21.9485 18.6745 21.8454C18.6674 21.5494 18.69 21.2827 18.7415 21.0452C18.793 20.8078 18.8516 20.6288 18.9172 20.5083C18.9828 20.3878 19.0568 20.2862 19.1392 20.2038C19.2217 20.1212 19.2805 20.0712 19.315 20.054C19.3493 20.0367 19.3767 20.0249 19.3973 20.0179C19.5625 19.9628 19.757 20.0161 19.9809 20.178C20.2047 20.3398 20.4146 20.5396 20.6109 20.777C20.8071 21.0146 21.0429 21.2812 21.3182 21.5772C21.5937 21.8733 21.8346 22.0934 22.041 22.2381L22.2475 22.362C22.3854 22.4447 22.5644 22.5205 22.7847 22.5893C23.0046 22.6581 23.1973 22.6753 23.3628 22.6409L26.0063 22.5997C26.2677 22.5997 26.4712 22.5564 26.6155 22.4705C26.7601 22.3844 26.846 22.2896 26.8737 22.1865C26.9013 22.0833 26.9028 21.9662 26.8789 21.8353C26.8545 21.7046 26.8303 21.6133 26.8063 21.5617Z" fill="white"/>
</g>
<defs>
<clipPath id="clip0_4618_16759">
<rect width="19.8333" height="19.8333" fill="white" transform="translate(7.07812 7.0835)"/>
</clipPath>
</defs>
</svg>
